<svg xmlns="http://www.w3.org/2000/svg" width="64" height="53" stroke="none" stroke-linecap="round" stroke-linejoin="round" fill="#8a898d" fill-rule="nonzero"><path d="M46.7478 19.9088c.606.6038 1.4258.944 2.2812.9467.8348 0 1.614-.3343 2.2827-.9467L62.7753 8.4445c1.224-1.224 1.224-3.2828 0-4.5068s-3.2835-1.2247-4.5082 0L46.8027 15.4014c-1.3225 1.202-1.3477 3.2736-.0548 4.5074zm10.3509 5.4542c-1.224-1.224-3.1167-1.224-4.397-.1112l-16.4723 16.473c-.9459.9459-2.4487.9459-3.339 0-.946-.946-.946-2.4487 0-3.3391l5.8989-5.899v-.0556l6.1214-6.1221c1.2248-1.224 1.2248-3.2835 0-4.5075s-3.2834-1.2247-4.5074 0l-3.5615 3.5615-.5567.556c-.946.9467-2.3924.9467-3.3391 0s-.946-2.3924 0-3.3383l2.4487-2.4487L47.1926 8.334c1.2248-1.2247 1.2248-3.2835 0-4.5082s-3.2834-1.224-4.5074 0l-7.0674 6.9006c-.6131.6123-1.4478.9467-2.2263.9467a3.22 3.22 0 0 1-2.1707-.8348l-6.6225-6.6226c-5.621-5.6209-14.7479-5.6209-20.3681 0C1.502 6.9417 0 10.5595 0 14.3998s1.5027 7.4573 4.2295 10.184l26.7133 26.7127c0 .0556.0556.0556.0556.1112.606.6037 1.4258.9439 2.2812.9467.8347 0 1.6139-.3344 2.2826-.9467l21.4809-21.4809c1.2677-1.2483 1.2925-3.285.0556-4.5638zm.5567-4.5075c0-1.7575 1.4149-3.1723 3.1723-3.1723s3.1722 1.4148 3.1722 3.1723-1.4148 3.1722-3.1722 3.1722-3.1723-1.4148-3.1723-3.1722z"/></svg>